<svg width="20" height="21" viewBox="0 0 20 21" fill="none" xmlns="http://www.w3.org/2000/svg">
<path d="M10.0006 8.99353C10.7372 8.99353 11.4437 8.70092 11.9645 8.18005C12.4854 7.65919 12.778 6.95274 12.778 6.21613C12.778 5.47951 12.4854 4.77307 11.9645 4.2522C11.4437 3.73134 10.7372 3.43872 10.0006 3.43872C9.264 3.43872 8.55756 3.73134 8.03669 4.2522C7.51583 4.77307 7.22321 5.47951 7.22321 6.21613C7.22321 6.95274 7.51583 7.65919 8.03669 8.18005C8.55756 8.70092 9.264 8.99353 10.0006 8.99353ZM6.29741 8.06773C6.29741 8.55881 6.10233 9.02977 5.75508 9.37701C5.40784 9.72426 4.93688 9.91934 4.4458 9.91934C3.95473 9.91934 3.48376 9.72426 3.13652 9.37701C2.78928 9.02977 2.5942 8.55881 2.5942 8.06773C2.5942 7.57666 2.78928 7.10569 3.13652 6.75845C3.48376 6.41121 3.95473 6.21613 4.4458 6.21613C4.93688 6.21613 5.40784 6.41121 5.75508 6.75845C6.10233 7.10569 6.29741 7.57666 6.29741 8.06773ZM2.12204 14.8502C1.96399 14.7603 1.84564 14.6142 1.7906 14.441C1.62748 13.9126 1.62577 13.3476 1.78569 12.8183C1.94561 12.289 2.25988 11.8195 2.68825 11.4699C3.11663 11.1202 3.63961 10.9064 4.19023 10.8558C4.74085 10.8052 5.29404 10.9201 5.77896 11.1858C4.7822 12.1649 4.15844 13.4612 4.0153 14.8511C3.99432 15.0578 4.00203 15.2597 4.03845 15.4566C3.36294 15.3972 2.70872 15.1902 2.12204 14.8502ZM15.9628 15.4556C16.6382 15.3966 17.2924 15.1899 17.8792 14.8502C18.0369 14.7602 18.1549 14.6141 18.2097 14.441C18.3731 13.9126 18.375 13.3474 18.2152 12.818C18.0554 12.2885 17.7411 11.8188 17.3127 11.469C16.8843 11.1192 16.3612 10.9053 15.8104 10.8547C15.2597 10.8041 14.7063 10.9191 14.2213 11.1849C15.219 12.164 15.8434 13.4607 15.9869 14.8511C16.0077 15.053 15.9996 15.2569 15.9628 15.4566M17.407 8.06773C17.407 8.55881 17.212 9.02977 16.8647 9.37701C16.5175 9.72426 16.0465 9.91934 15.5554 9.91934C15.0644 9.91934 14.5934 9.72426 14.2461 9.37701C13.8989 9.02977 13.7038 8.55881 13.7038 8.06773C13.7038 7.57666 13.8989 7.10569 14.2461 6.75845C14.5934 6.41121 15.0644 6.21613 15.5554 6.21613C16.0465 6.21613 16.5175 6.41121 16.8647 6.75845C17.212 7.10569 17.407 7.57666 17.407 8.06773ZM5.65305 15.6501C5.56151 15.5685 5.49056 15.4664 5.44599 15.3521C5.40142 15.2379 5.3845 15.1148 5.3966 14.9927C5.51436 13.8535 6.05026 12.7984 6.90071 12.0313C7.75117 11.2642 8.85579 10.8397 10.0011 10.8397C11.1464 10.8397 12.251 11.2642 13.1014 12.0313C13.9519 12.7984 14.4878 13.8535 14.6056 14.9927C14.6177 15.1148 14.6007 15.2379 14.5562 15.3521C14.5116 15.4664 14.4406 15.5685 14.3491 15.6501C13.1585 16.73 11.6081 17.3275 10.0006 17.3258C8.39331 17.3281 6.84296 16.7306 5.65305 15.6501Z" fill="#A2ABAF"/>
</svg>
