<svg width="18" height="18" viewBox="0 0 18 18" fill="none" xmlns="http://www.w3.org/2000/svg">
<path d="M2.05588 17.4386C2.05588 17.4386 0.666992 17.4386 0.666992 16.0497C0.666992 14.6609 2.05588 10.4942 9.00033 10.4942C15.9448 10.4942 17.3337 14.6609 17.3337 16.0497C17.3337 17.4386 15.9448 17.4386 15.9448 17.4386H2.05588ZM9.00033 9.10531C10.1054 9.10531 11.1652 8.66632 11.9466 7.88492C12.728 7.10352 13.167 6.04371 13.167 4.93864C13.167 3.83357 12.728 2.77376 11.9466 1.99236C11.1652 1.21096 10.1054 0.771973 9.00033 0.771973C7.89526 0.771973 6.83545 1.21096 6.05405 1.99236C5.27265 2.77376 4.83366 3.83357 4.83366 4.93864C4.83366 6.04371 5.27265 7.10352 6.05405 7.88492C6.83545 8.66632 7.89526 9.10531 9.00033 9.10531Z" fill="white"/>
</svg>
