<svg width="18" height="18" viewBox="0 0 18 18" fill="none" xmlns="http://www.w3.org/2000/svg">
<path d="M2.51884 17.4386C2.00958 17.4386 1.57378 17.2575 1.21144 16.8951C0.849091 16.5328 0.667609 16.0967 0.666992 15.5868V1.6979C0.666992 1.43556 0.755881 1.2158 0.933659 1.03864C1.11144 0.861482 1.33119 0.772593 1.59292 0.771976C1.85465 0.771359 2.07471 0.860247 2.2531 1.03864C2.4315 1.21704 2.52008 1.43679 2.51884 1.6979V15.5868H16.4077C16.6701 15.5868 16.8901 15.6757 17.0679 15.8534C17.2457 16.0312 17.3343 16.251 17.3336 16.5127C17.333 16.7744 17.2441 16.9945 17.067 17.1729C16.8898 17.3513 16.6701 17.4399 16.4077 17.4386H2.51884ZM4.37069 14.6609C4.10835 14.6609 3.88859 14.572 3.71143 14.3942C3.53427 14.2164 3.44538 13.9967 3.44477 13.7349V7.25345C3.44477 6.99111 3.53366 6.77135 3.71143 6.59419C3.88921 6.41703 4.10896 6.32814 4.37069 6.32753H6.22254C6.48489 6.32753 6.70495 6.41641 6.88273 6.59419C7.0605 6.77197 7.14909 6.99172 7.14847 7.25345V13.7349C7.14847 13.9973 7.05958 14.2173 6.8818 14.3951C6.70402 14.5729 6.48427 14.6615 6.22254 14.6609H4.37069ZM9.00032 14.6609C8.73797 14.6609 8.51822 14.572 8.34106 14.3942C8.1639 14.2164 8.07501 13.9967 8.07439 13.7349V2.62383C8.07439 2.36148 8.16328 2.14173 8.34106 1.96457C8.51884 1.78741 8.73859 1.69852 9.00032 1.6979H10.8522C11.1145 1.6979 11.3346 1.78679 11.5124 1.96457C11.6901 2.14234 11.7787 2.3621 11.7781 2.62383V13.7349C11.7781 13.9973 11.6892 14.2173 11.5114 14.3951C11.3336 14.5729 11.1139 14.6615 10.8522 14.6609H9.00032ZM13.6299 14.6609C13.3676 14.6609 13.1478 14.572 12.9707 14.3942C12.7935 14.2164 12.7046 13.9967 12.704 13.7349V10.9572C12.704 10.6948 12.7929 10.4751 12.9707 10.2979C13.1485 10.1207 13.3682 10.0318 13.6299 10.0312H15.4818C15.7441 10.0312 15.9642 10.1201 16.142 10.2979C16.3198 10.4757 16.4083 10.6954 16.4077 10.9572V13.7349C16.4077 13.9973 16.3188 14.2173 16.1411 14.3951C15.9633 14.5729 15.7435 14.6615 15.4818 14.6609H13.6299Z" fill="white"/>
</svg>
