<svg width="20" height="21" viewBox="0 0 20 21" fill="none" xmlns="http://www.w3.org/2000/svg">
<path d="M10.8989 1.77222C11.1439 1.77222 11.363 1.92472 11.4455 2.15305L12.0339 3.78386C12.2444 3.83609 12.4261 3.88942 12.5789 3.94386C12.7455 4.00331 12.9622 4.09497 13.2289 4.21886L14.5988 3.49387C14.7106 3.43435 14.8387 3.41281 14.9638 3.43251C15.0888 3.4522 15.2041 3.51206 15.2922 3.60303L16.4972 4.84885C16.6572 5.01469 16.7022 5.25718 16.6122 5.46885L15.9697 6.97467C16.0758 7.17022 16.1613 7.338 16.2263 7.478C16.2963 7.62966 16.383 7.84077 16.4863 8.11132L17.9838 8.75298C18.2088 8.84882 18.348 9.07381 18.333 9.31465L18.223 11.0438C18.2155 11.1561 18.1751 11.2638 18.107 11.3534C18.0388 11.443 17.9459 11.5107 17.8396 11.548L16.4213 12.0521C16.3808 12.2477 16.338 12.416 16.293 12.5571C16.2202 12.7758 16.1373 12.991 16.0447 13.2021L16.7572 14.7771C16.8078 14.8877 16.8216 15.0116 16.7964 15.1306C16.7712 15.2497 16.7083 15.3574 16.6172 15.4379L15.2622 16.6479C15.1731 16.7276 15.0617 16.778 14.9431 16.7923C14.8245 16.8066 14.7043 16.7841 14.5988 16.7279L13.2022 15.9879C12.9839 16.1041 12.7584 16.2062 12.5272 16.2937L11.9172 16.5221L11.3755 18.0221C11.335 18.1317 11.2625 18.2266 11.1674 18.2945C11.0723 18.3624 10.959 18.4001 10.8422 18.4029L9.25889 18.4387C9.13894 18.4415 9.02105 18.4072 8.92128 18.3406C8.82151 18.2739 8.74473 18.1781 8.7014 18.0662L8.06307 16.3771C7.84533 16.3025 7.6297 16.2219 7.41641 16.1354C7.24201 16.0599 7.07025 15.9785 6.90142 15.8913L5.3181 16.5679C5.21381 16.6126 5.09875 16.626 4.987 16.6063C4.87525 16.5866 4.77166 16.5347 4.68894 16.4571L3.51728 15.3579C3.42972 15.2767 3.37009 15.1698 3.34689 15.0526C3.32369 14.9354 3.33812 14.8139 3.38812 14.7054L4.06894 13.2221C3.97872 13.0463 3.89478 12.8673 3.81728 12.6854C3.72701 12.4628 3.64363 12.2374 3.56728 12.0096L2.07563 11.5555C1.95438 11.5188 1.84863 11.4432 1.77479 11.3402C1.70095 11.2373 1.66317 11.1129 1.6673 10.9863L1.72563 9.38548C1.72996 9.28108 1.76267 9.17983 1.82022 9.09262C1.87777 9.0054 1.95801 8.93552 2.05229 8.89048L3.61728 8.13882C3.6895 7.87327 3.75339 7.66549 3.80894 7.5155C3.88757 7.31404 3.97487 7.11608 4.07061 6.92217L3.39228 5.48885C3.34041 5.38008 3.32457 5.25761 3.34705 5.13923C3.36952 5.02084 3.42916 4.91271 3.51728 4.83052L4.68727 3.72553C4.76918 3.64799 4.87181 3.59586 4.98273 3.57545C5.09366 3.55504 5.20812 3.56723 5.31226 3.61053L6.89392 4.26386C7.06836 4.14775 7.22725 4.0522 7.37058 3.9772C7.54113 3.8872 7.77002 3.79109 8.05724 3.68887L8.60723 2.15471C8.64831 2.04271 8.72273 1.94599 8.82048 1.87759C8.91823 1.8092 9.0346 1.77242 9.15389 1.77222H10.8989ZM10.0206 7.62133C8.6314 7.62133 7.50558 8.73382 7.50558 10.1071C7.50558 11.4805 8.6314 12.5938 10.0206 12.5938C11.4097 12.5938 12.5347 11.4805 12.5347 10.1071C12.5347 8.73382 11.4097 7.62133 10.0206 7.62133Z" fill="white"/>
</svg>
