<svg width="11" height="16" viewBox="0 0 11 16" fill="none" xmlns="http://www.w3.org/2000/svg">
<path d="M5.58517 0.5C3.24672 0.5 1.7321 1.4581 0.542972 3.16678C0.327259 3.47674 0.393763 3.90172 0.694671 4.12988L1.95848 5.08815C2.26238 5.31857 2.69477 5.2647 2.93269 4.96663C3.66655 4.04727 4.21091 3.51793 5.35721 3.51793C6.2585 3.51793 7.3733 4.09798 7.3733 4.97196C7.3733 5.63267 6.82788 5.97198 5.93796 6.47091C4.90018 7.05274 3.52686 7.77685 3.52686 9.58824V9.875C3.52686 10.2633 3.84165 10.5781 4.22998 10.5781H6.35316C6.74149 10.5781 7.05628 10.2633 7.05628 9.875V9.70587C7.05628 8.4502 10.7262 8.39791 10.7262 5C10.7263 2.44109 8.07192 0.5 5.58517 0.5ZM5.29158 11.4412C4.17256 11.4412 3.26216 12.3516 3.26216 13.4706C3.26216 14.5896 4.17256 15.5 5.29158 15.5C6.41061 15.5 7.32101 14.5896 7.32101 13.4706C7.32101 12.3516 6.41061 11.4412 5.29158 11.4412Z" fill="#A2ABAF"/>
</svg>
